<svg width="644" height="621" viewBox="0 0 644 621" fill="none" xmlns="http://www.w3.org/2000/svg">
<rect width="644" height="621" rx="20" fill="black"/>
<path d="M159.525 118.5C164.596 120.764 167.923 123.678 171.732 127.664C173.469 129.443 175.265 131.067 177.15 132.688C180.852 135.878 184.443 139.176 188.025 142.5C191.488 145.712 194.951 148.911 198.525 152C203.703 156.487 208.706 161.166 213.725 165.829C215.56 167.533 217.4 169.231 219.24 170.93C225.996 177.183 232.617 183.534 239.088 190.082C242.534 193.555 246.074 196.85 249.822 200C251.582 201.55 253.129 203.21 254.713 204.938C257.525 207.5 257.525 207.5 259.963 208C262.525 207.5 262.525 207.5 265.474 206.598C270.536 205.136 275.712 204.319 280.9 203.438C281.89 203.264 282.88 203.091 283.9 202.912C295.269 200.955 306.254 200.298 317.775 200.312C318.528 200.312 319.282 200.312 320.058 200.312C332.315 200.326 344.362 200.909 356.525 202.5C357.178 202.578 357.178 202.578 360.482 202.973C367.13 203.83 373.469 205.128 379.904 207.012C382.899 207.57 384.607 207.352 387.525 206.5C389.526 204.937 389.526 204.937 391.451 202.93C392.166 202.197 392.88 201.465 393.617 200.711C394.35 199.94 395.082 199.169 395.837 198.375C400.648 193.388 405.475 188.571 410.737 184.059C413.117 181.984 415.322 179.762 417.525 177.5C421.089 173.893 424.744 170.505 428.595 167.211C430.658 165.382 432.591 163.464 434.525 161.5C437.631 158.352 440.85 155.423 444.201 152.539C447.149 149.952 450.024 147.292 452.9 144.625C458.397 139.533 463.933 134.488 469.525 129.5C469.885 129.175 469.885 129.175 471.709 127.531C481.507 118.788 481.507 118.788 487.025 118C491.174 118.593 493.295 119.871 496.525 122.5C498.965 126.16 498.783 127.916 498.799 132.281C498.804 132.974 498.81 133.667 498.815 134.382C498.83 136.71 498.831 139.038 498.831 141.367C498.839 143.034 498.847 144.701 498.857 146.368C498.879 150.901 498.887 155.434 498.892 159.967C498.896 162.799 498.902 165.63 498.909 168.461C498.934 178.335 498.947 188.209 498.951 198.083C498.954 207.292 498.984 216.5 499.026 225.709C499.061 233.611 499.076 241.513 499.077 249.416C499.078 254.137 499.086 258.858 499.115 263.58C499.141 268.02 499.143 272.46 499.127 276.901C499.125 278.531 499.132 280.161 499.148 281.791C499.168 284.016 499.158 286.24 499.14 288.465C499.142 289.71 499.144 290.955 499.146 292.238C498.355 296.392 496.746 297.857 493.525 300.5C490.319 302.103 487.004 301.987 483.525 301.5C479.962 299.331 478.055 297.344 476.525 293.5C476.279 290.853 476.279 290.853 476.284 287.78C476.283 287.197 476.283 287.197 476.276 284.245C476.283 282.969 476.291 281.693 476.298 280.378C476.299 279.018 476.298 277.658 476.297 276.297C476.296 272.608 476.308 268.918 476.322 265.228C476.335 261.371 476.336 257.514 476.338 253.657C476.344 246.354 476.361 239.052 476.381 231.749C476.403 223.435 476.414 215.12 476.424 206.806C476.445 189.704 476.48 172.602 476.525 155.5C474.777 156.911 473.031 158.326 471.287 159.742C470.801 160.136 470.801 160.136 468.34 162.128C465.168 164.801 462.281 167.655 459.392 170.625C457.642 172.382 455.844 174.01 453.963 175.625C448.004 180.76 442.314 186.189 436.581 191.573C434.564 193.464 432.539 195.346 430.513 197.227C424.215 203.092 417.982 209.003 411.92 215.113C411.445 215.591 410.97 216.069 410.481 216.562C408.139 218.923 405.805 221.292 403.48 223.67C403.056 224.1 403.056 224.1 400.912 226.273C400.161 227.041 399.41 227.808 398.637 228.599C395.759 231.19 393.757 232.478 389.861 232.547C382.229 231.782 374.762 230.817 367.42 228.535C341.352 221.057 305.844 221.131 279.677 227.964C276.393 228.782 273.073 229.397 269.749 230.027C267.525 230.5 267.525 230.5 264.025 231.625C259.344 232.795 255.303 233.367 250.525 232.5C248.667 231.301 248.667 231.301 246.896 229.652C246.553 229.335 246.553 229.335 244.816 227.726C239.843 222.894 234.956 217.98 230.088 213.043C224.963 207.851 219.811 202.761 214.263 198.016C210.791 194.988 207.648 191.638 204.431 188.344C201.615 185.523 198.616 182.937 195.604 180.33C191.524 176.739 187.623 172.954 183.701 169.193C180.016 165.702 176.24 162.419 172.263 159.261C171.373 158.553 170.482 157.845 169.565 157.116C169.228 156.849 169.228 156.849 167.525 155.5C167.529 156.201 167.532 156.901 167.536 157.623C167.625 174.674 167.691 191.725 167.732 208.777C167.753 217.023 167.781 225.269 167.827 233.515C167.867 240.702 167.892 247.89 167.901 255.078C167.907 258.883 167.919 262.688 167.948 266.494C167.975 270.077 167.983 273.661 167.977 277.244C167.979 279.183 168.001 281.121 168.023 283.059C167.985 291.013 167.188 294.575 161.775 300.375C158.396 302.064 155.176 302.16 151.525 301.5C147.969 299.335 146.017 297.356 144.525 293.5C144.271 290.414 144.271 290.414 144.264 286.713C144.26 286.031 144.257 285.349 144.253 284.646C144.242 282.363 144.246 280.079 144.25 277.795C144.246 276.157 144.241 274.52 144.235 272.882C144.221 268.434 144.221 263.985 144.223 259.537C144.224 255.824 144.22 252.111 144.215 248.398C144.204 239.64 144.203 230.881 144.209 222.123C144.215 213.085 144.203 204.048 144.182 195.01C144.164 187.252 144.158 179.494 144.161 171.736C144.163 167.102 144.161 162.468 144.147 157.834C144.134 153.476 144.136 149.119 144.149 144.761C144.151 143.162 144.149 141.563 144.14 139.964C144.13 137.78 144.138 135.598 144.151 133.414C144.151 132.193 144.15 130.971 144.15 129.712C144.682 125.158 146.227 122.545 149.775 119.688C153.352 118.143 155.652 118.033 159.525 118.5Z" fill="#F7F7F7"/>
<path d="M473.525 425.5C476.459 427.296 477.997 428.444 479.525 431.5C480.597 438.037 479.417 441.318 475.713 446.812C465.088 461.371 452.161 473.429 436.525 482.5C435.418 483.147 434.31 483.794 433.17 484.461C416.339 494.004 392.216 504.9 372.525 502.5C369.018 500.454 366.785 498.396 365.525 494.5C365.004 490.509 365.355 488.805 367.337 485.25C371.152 480.455 375.179 479.785 380.9 478.625C403.91 473.693 424.635 465.131 442.525 449.5C443.188 448.921 443.85 448.342 444.533 447.746C449.714 442.89 453.765 437.295 457.845 431.515C462.413 425.072 465.817 424.591 473.525 425.5Z" fill="#F8F7F8"/>
<path d="M177.888 424.867C182.458 425.964 184.007 428.743 186.525 432.5C207.496 459.265 233.853 473.306 266.962 480.062C270.583 480.881 272.636 481.569 275.837 483.562C278.303 487.854 278.539 491.672 277.525 496.5C275.334 499.324 273.695 500.915 270.525 502.5C263.94 503.127 257.824 501.963 251.462 500.375C251.002 500.261 251.002 500.261 248.675 499.686C214.01 490.839 184.411 471.329 164.525 441.5C163.755 436.79 163.64 431.97 166.337 427.875C170.352 424.884 172.959 424.564 177.888 424.867Z" fill="#F8F7F8"/>
<path d="M311.614 379.102C312.396 379.099 313.177 379.096 313.982 379.093C315.632 379.091 317.282 379.097 318.932 379.109C321.45 379.125 323.966 379.109 326.483 379.09C328.089 379.092 329.695 379.096 331.302 379.102C332.051 379.096 332.8 379.09 333.572 379.084C338.036 379.143 341.033 379.635 344.524 382.5C345.583 385.848 345.583 385.848 345.524 389.5C343.934 392.309 343.934 392.309 341.587 394.938C341.175 395.41 341.175 395.41 339.094 397.797C336.799 400.211 334.423 402.447 331.962 404.688C329.37 407.228 327.981 408.821 327.774 412.5C328.415 418.216 330.878 422.896 334.962 426.875C339.926 430.024 343.592 431.012 349.524 430.5C354.757 428.786 357.863 426.58 361.524 422.5C363.524 420.5 363.524 420.5 366.524 420.25C369.524 420.5 369.524 420.5 371.524 422.5C371.524 427.426 369.695 430.36 366.426 433.821C359.286 440.125 351.667 441.484 342.376 440.981C334.937 440.053 329.824 437.297 324.899 431.688C324.115 430.636 323.332 429.584 322.524 428.5C322.065 428.899 321.606 429.297 321.134 429.707C319.868 430.8 318.599 431.887 317.325 432.969C316.027 434.072 314.741 435.189 313.462 436.313C310.892 437.888 308.491 438.163 305.524 438.5C305.524 439.16 305.524 439.82 305.524 440.5C285.966 441.301 285.966 441.301 278.536 434.747C272.587 429.036 272.587 429.036 272.399 424.438C272.524 421.5 272.524 421.5 273.524 420.5C276.087 419.938 276.087 419.938 279.524 420.5C281.715 422.379 283.595 424.385 285.497 426.555C288.735 429.662 292.274 430.801 296.712 431C302.613 430.843 307.079 428.251 311.524 424.5C314.63 420.62 316.548 415.662 316.302 410.629C314.807 406.535 311.35 403.923 308.219 401.016C298.649 392.084 298.649 392.084 298.337 385.625C300.825 379.076 305.217 379.05 311.614 379.102Z" fill="#F4F4F4"/>
<path d="M542.462 333.5C544.736 336.808 545.137 338.551 545.286 342.438C544.054 345.774 541.419 347.611 538.524 349.5C535.715 350.661 532.855 351.373 529.9 352.07C529.488 352.174 529.488 352.174 527.403 352.7C524.78 353.357 522.153 353.991 519.524 354.625C517.791 355.057 516.058 355.491 514.325 355.926C509.4 357.155 504.466 358.339 499.524 359.5C498.823 359.666 498.122 359.832 497.4 360.003C495.506 360.447 493.609 360.876 491.712 361.305C490.674 361.539 489.637 361.774 488.567 362.015C479.852 363.404 479.852 363.404 475.587 360.5C473.303 357.177 472.939 355.467 472.86 351.562C473.946 348.19 475.78 346.693 478.524 344.5C481.336 343.62 483.839 342.998 486.712 342.5C488.331 342.181 489.95 341.858 491.567 341.531C492.392 341.366 493.216 341.201 494.065 341.031C497.936 340.195 501.723 339.102 505.524 338C511.72 336.234 517.931 334.619 524.212 333.188C524.942 333.016 525.673 332.845 526.425 332.668C537.597 330.188 537.597 330.188 542.462 333.5Z" fill="#F6F6F7"/>
<path d="M113.912 331.912C116.628 332.481 119.326 333.104 122.025 333.75C122.999 333.977 123.973 334.205 124.976 334.439C131.678 336.019 138.343 337.704 144.982 339.531C147.517 340.224 150.051 340.891 152.599 341.531C153.277 341.704 153.954 341.876 154.652 342.054C156.528 342.531 158.405 343.002 160.283 343.473C163.43 344.47 165.833 345.602 168.525 347.5C170.118 350.685 169.916 354.033 169.525 357.5C167.783 360.736 167.053 361.324 163.525 362.5C157.556 362.904 152.458 361.69 146.752 360.164C145.828 359.925 144.905 359.685 143.954 359.438C141.017 358.675 138.084 357.9 135.15 357.125C132.223 356.359 129.295 355.595 126.367 354.833C124.551 354.359 122.736 353.883 120.921 353.404C116.116 352.141 111.319 350.999 106.44 350.053C103.005 349.061 101.485 347.408 99.5246 344.5C98.8296 341.661 98.8206 339.338 99.5246 336.5C103.5 330.719 107.31 330.772 113.912 331.912Z" fill="#F8F8F8"/>
<path d="M166.525 377.5C169.087 379.5 169.087 379.5 170.525 382.5C170.741 385.655 170.598 388.514 169.525 391.5C166.666 394.029 164.06 395.142 160.404 396.148C159.396 396.429 158.387 396.71 157.349 397C156.273 397.289 155.196 397.577 154.087 397.875C152.98 398.177 151.873 398.48 150.733 398.791C143.476 400.754 136.201 402.648 128.9 404.438C128.055 404.649 127.21 404.86 126.34 405.078C121.667 406.189 117.361 406.957 112.525 406.5C109.331 403.646 107.778 401.713 106.9 397.5C107.725 393.539 109.467 391.054 112.525 388.5C115.689 387.072 118.937 386.313 122.314 385.543C123.254 385.31 124.195 385.076 125.163 384.836C128.154 384.099 131.151 383.393 134.15 382.688C136.174 382.195 138.197 381.701 140.22 381.205C144.664 380.117 149.112 379.048 153.565 377.997C158.238 376.811 161.771 376.145 166.525 377.5Z" fill="#F4F4F4"/>
<path d="M494.255 379.043C495.661 379.478 497.066 379.919 498.468 380.366C505.53 382.6 512.691 384.168 519.95 385.623C526.631 387.04 532.552 388.54 536.525 394.5C536.382 398.347 535.777 401.005 534.025 404.437C531.066 406.878 529.288 406.93 525.53 406.84C518.582 406.053 511.827 403.997 505.087 402.187C503.527 401.778 501.966 401.37 500.406 400.962C478.824 395.304 478.824 395.304 474.9 392.875C472.745 389.152 472.811 385.684 473.525 381.5C477.317 374.095 487.807 377.143 494.255 379.043Z" fill="#F5F5F6"/>
<path d="M498.525 127.5C498.855 127.5 499.185 127.5 499.525 127.5C499.525 134.43 499.525 141.36 499.525 148.5C500.185 148.5 500.845 148.5 501.525 148.5C501.548 163.199 501.566 177.898 501.577 192.596C501.582 199.421 501.589 206.246 501.6 213.07C501.611 219.651 501.617 226.233 501.62 232.814C501.622 235.33 501.625 237.845 501.631 240.361C501.638 243.874 501.639 247.387 501.639 250.9C501.642 251.949 501.646 252.999 501.649 254.08C501.648 255.034 501.647 255.987 501.645 256.97C501.646 257.801 501.647 258.632 501.648 259.489C501.525 261.5 501.525 261.5 500.525 263.5C500.37 265.677 500.275 267.858 500.209 270.039C500.167 271.341 500.125 272.643 500.082 273.984C500.042 275.365 500.002 276.745 499.963 278.125C499.919 279.513 499.876 280.901 499.832 282.289C499.725 285.693 499.623 289.096 499.525 292.5C499.195 292.5 498.865 292.5 498.525 292.5C498.525 238.05 498.525 183.6 498.525 127.5Z" fill="#3C3D3B"/>
<path d="M426.525 199.5C427.185 199.83 427.845 200.16 428.525 200.5C427.826 201.175 427.128 201.851 426.408 202.547C425.498 203.439 424.588 204.331 423.65 205.25C422.745 206.132 421.84 207.013 420.908 207.922C418.525 210.5 418.525 210.5 417.463 212.625C416.228 215.094 414.636 216.163 412.4 217.75C411.676 218.271 410.951 218.792 410.205 219.328C409.65 219.715 409.096 220.102 408.525 220.5C407.865 220.17 407.205 219.84 406.525 219.5C413.125 212.9 419.725 206.3 426.525 199.5Z" fill="#1A1B1B"/>
<path d="M334.525 438.5C334.815 438.579 334.815 438.579 336.282 438.98C339.737 439.781 343.244 439.872 346.775 440.062C347.52 440.106 348.265 440.149 349.033 440.193C350.863 440.299 352.694 440.4 354.525 440.5C353.525 442.5 353.525 442.5 350.087 443.812C344.969 444.999 340.172 443.864 335.525 441.5C335.195 440.51 334.865 439.52 334.525 438.5Z" fill="#151615"/>
<path d="M244.525 192.5C249.051 196.178 252.919 199.911 256.525 204.5C253.525 204.5 253.525 204.5 251.587 202.855C250.907 202.14 250.226 201.425 249.525 200.688C248.844 199.98 248.164 199.272 247.463 198.543C246.823 197.869 246.184 197.195 245.525 196.5C244.528 195.497 243.53 194.495 242.525 193.5C243.185 193.17 243.845 192.84 244.525 192.5Z" fill="#171717"/>
<path d="M150.525 399.5C149.576 399.789 148.628 400.077 147.65 400.375C144.525 401.5 144.525 401.5 142.525 403.5C138.313 404.599 136.279 404.612 132.525 402.5C134.771 401.8 137.022 401.116 139.275 400.438C140.528 400.055 141.781 399.672 143.072 399.277C146.199 398.573 147.62 398.333 150.525 399.5ZM133.525 404.5C136.525 405.5 136.525 405.5 136.525 405.5L133.525 404.5Z" fill="#363636"/>
<path d="M249.525 231.5C253.815 231.5 258.105 231.5 262.525 231.5C260.525 234.5 260.525 234.5 257.213 235.312C253.568 235.498 251.72 235.146 248.525 233.5C248.855 232.84 249.185 232.18 249.525 231.5Z" fill="#1E1E1E"/>
<path d="M226.525 177.5C230.394 178.073 232.677 179.89 235.525 182.5C235.525 183.16 235.525 183.82 235.525 184.5C236.185 184.5 236.845 184.5 237.525 184.5C237.195 185.49 236.865 186.48 236.525 187.5C229.042 181.35 229.042 181.35 226.525 177.5Z" fill="#191919"/>
<path d="M382.525 204.5C382.525 205.16 382.525 205.82 382.525 206.5C384.175 206.5 385.825 206.5 387.525 206.5C387.195 207.16 386.865 207.82 386.525 208.5C384.941 208.385 383.358 208.258 381.775 208.125C380.893 208.055 380.012 207.986 379.103 207.914C376.534 207.501 374.767 206.788 372.525 205.5C380.275 204.5 380.275 204.5 382.525 204.5Z" fill="#3C3D3C"/>
<path d="M442.525 477.5C443.185 477.83 443.845 478.16 444.525 478.5C439.566 483.636 439.566 483.636 436.525 485.5C435.535 485.17 434.545 484.84 433.525 484.5C436.148 481.585 439.243 479.615 442.525 477.5Z" fill="#1A1A1A"/>
<path d="M228.525 211.5C229.654 212.433 230.778 213.371 231.9 214.312C232.526 214.835 233.153 215.357 233.798 215.895C235.525 217.5 235.525 217.5 237.525 220.5C234.525 220.5 234.525 220.5 232.92 219.293C232.397 218.763 231.875 218.233 231.337 217.688C230.808 217.165 230.278 216.643 229.732 216.105C228.525 214.5 228.525 214.5 228.525 211.5Z" fill="#101010"/>
<path d="M273.525 229.5C268.11 233.562 268.11 233.562 265.15 233.25C264.614 233.003 264.078 232.755 263.525 232.5C263.525 231.84 263.525 231.18 263.525 230.5C269.811 228.071 269.811 228.071 273.525 229.5Z" fill="#303030"/>
<path d="M198.525 149.5C199.7 150.427 200.865 151.367 202.025 152.312C202.675 152.835 203.324 153.357 203.994 153.895C205.525 155.5 205.525 155.5 205.525 158.5C204.35 157.573 203.185 156.633 202.025 155.688C201.7 155.426 201.7 155.426 200.056 154.105C198.525 152.5 198.525 152.5 198.525 149.5Z" fill="#171817"/>
<path d="M264.525 204.5C263.865 205.82 263.205 207.14 262.525 208.5C260.875 208.5 259.225 208.5 257.525 208.5C257.525 207.51 257.525 206.52 257.525 205.5C259.988 204.269 261.805 204.428 264.525 204.5Z" fill="#1E1D1D"/>
<path d="M523.525 406.5C526.165 406.5 528.805 406.5 531.525 406.5C531.195 406.995 531.195 406.995 529.525 409.5C526.9 409.688 526.9 409.688 524.525 409.5C524.195 408.51 523.865 407.52 523.525 406.5Z" fill="#1C1C1C"/>
<path d="M179.525 460.5C181.835 462.48 184.145 464.46 186.525 466.5C185.865 467.16 185.205 467.82 184.525 468.5C182.025 466.188 182.025 466.188 179.525 463.5C179.525 462.51 179.525 461.52 179.525 460.5Z" fill="#1A1919"/>
<path d="M161.525 433.5C162.515 433.5 163.505 433.5 164.525 433.5C164.525 435.48 164.525 437.46 164.525 439.5C163.535 439.83 162.545 440.16 161.525 440.5C161.525 438.19 161.525 435.88 161.525 433.5Z" fill="#222223"/>
<path d="M454.525 468.5C455.185 468.83 455.845 469.16 456.525 469.5C454.213 472 454.213 472 451.525 474.5C450.535 474.5 449.545 474.5 448.525 474.5C450.525 472.5 452.525 470.5 454.525 468.5Z" fill="#1F1F1F"/>
<path d="M158.525 359.5C162.15 359.312 162.15 359.312 165.525 359.5C165.195 359.665 165.195 359.665 163.525 360.5C163.525 361.16 163.525 361.82 163.525 362.5C161.215 362.5 158.905 362.5 156.525 362.5C157.185 361.51 157.845 360.52 158.525 359.5Z" fill="#E4E4E4"/>
<path d="M150.525 119.5C151.185 119.83 151.845 120.16 152.525 120.5C147.775 125.375 147.775 125.375 145.525 126.5C146.775 122.847 147.196 121.719 150.525 119.5Z" fill="#D6D5D6"/>
<path d="M113.525 403.5C115.835 403.5 118.145 403.5 120.525 403.5C120.195 404.49 119.865 405.48 119.525 406.5C117.215 406.5 114.905 406.5 112.525 406.5C112.855 405.51 113.185 404.52 113.525 403.5Z" fill="#E5E5E5"/>
<path d="M357.212 199.812C358.305 200.039 359.398 200.266 360.524 200.5C357.123 202.593 354.472 202.679 350.524 202.5C352.632 199.401 353.344 199.484 357.212 199.812Z" fill="#121111"/>
</svg>
